<svg xmlns="http://www.w3.org/2000/svg" version="1.1" xmlns:xlink="http://www.w3.org/1999/xlink" xmlns:svgjs="http://svgjs.dev/svgjs" width="1000" height="623" viewBox="0 0 1000 623"><g transform="matrix(1,0,0,1,-0.6060606060606233,0.2522267206477409)"><svg viewBox="0 0 396 247" data-background-color="#ffffff" preserveAspectRatio="xMidYMid meet" height="623" width="1000" xmlns="http://www.w3.org/2000/svg" xmlns:xlink="http://www.w3.org/1999/xlink"><g id="tight-bounds" transform="matrix(1,0,0,1,0.2400000000000091,-0.09999999999999432)"><svg viewBox="0 0 395.52 247.2" height="247.2" width="395.52"><g><svg></svg></g><g><svg viewBox="0 0 395.52 247.2" height="247.2" width="395.52"><g transform="matrix(1,0,0,1,183.49828101265823,47.215199999999996)"><svg viewBox="0 0 28.52343797468354 152.7696" height="152.7696" width="28.52343797468354"><g><svg viewBox="0 0 28.52343797468354 152.7696" height="152.7696" width="28.52343797468354"><g><svg viewBox="0 0 28.52343797468354 152.7696" height="152.7696" width="28.52343797468354"><g><svg viewBox="0 0 28.52343797468354 152.7696" height="152.7696" width="28.52343797468354"><g id="textblocktransform"><svg viewBox="0 0 28.52343797468354 152.7696" height="152.7696" width="28.52343797468354" id="textblock"><g><svg viewBox="0 0 28.52343797468354 152.7696" height="152.7696" width="28.52343797468354"><g transform="matrix(1,0,0,1,0,0)"><svg width="28.52343797468354" viewBox="-1.600000023841858 -35 8.850000381469727 47.400001525878906" height="152.7696" data-palette-color="#ffffff"><path d="M0.05 12.4L-1.6 10.45Q1.85 7.2 3.3 3.15L3.3 3.15Q3.85 1.6 3.85 0L3.85 0 3.85-35 7.25-35 7.25 0Q7.25 0.15 7.25 0.3L7.25 0.3Q7.25 5.8 2.15 10.5L2.15 10.5Q0.9 11.65 0.05 12.4L0.05 12.4Z" opacity="1" transform="matrix(1,0,0,1,0,0)" fill="#ffffff" class="undefined-text-0" data-fill-palette-color="primary" id="text-0"></path></svg></g></svg></g></svg></g></svg></g></svg></g></svg></g></svg></g><g><path d="M0 123.6c0-20.837 5.156-40.469 14.262-57.691l0 16.775c-4.767 12.732-7.373 26.52-7.374 40.916 0 14.396 2.606 28.183 7.374 40.916l0 16.775c-9.106-17.222-14.262-36.854-14.262-57.691zM123.6 0c30.402 0 58.24 10.976 79.768 29.183l-11.147 0c-19.26-14.022-42.974-22.294-68.621-22.295-25.647 0-49.361 8.272-68.621 22.295l-11.147 0c21.528-18.206 49.366-29.183 79.768-29.183zM123.6 247.2c-30.402 0-58.24-10.976-79.768-29.183l11.147 0c19.26 14.022 42.974 22.294 68.621 22.295 25.647 0 49.361-8.272 68.621-22.295l11.147 0c-21.528 18.206-49.366 29.183-79.768 29.183z" fill="#ffffff" stroke="transparent" data-fill-palette-color="tertiary"></path></g></svg></g><defs></defs></svg><rect width="395.52" height="247.2" fill="none" stroke="none" visibility="hidden"></rect></g></svg></g></svg>